# xmcd
#
# Track frame offsets:
#	150
#	73701
#	108137
#	141584
#	171426
#	220581
#
# Disc length: 4439 seconds
#
# Revision: 1
# Processed by: cddbd v1.5.2PL0 Copyright (c) Steve Scherf et al.
# Submitted via: audiograbber 1.83.01
#
DISCID=58115506
DTITLE=Grateful Dead - 95-04-07 Tampa Stadium, Tampa FL
DYEAR=1900
DGENRE=
TTITLE0=Eyes Of The World
TTITLE1=Saint Of Circumstance
TTITLE2=Samba In The Rain
TTITLE3=Unbroken Chain
TTITLE4=Corrina
TTITLE5=Drums
EXTD=
EXTT0=
EXTT1=
EXTT2=
EXTT3=
EXTT4=
EXTT5=
PLAYORDER=
